<svg width="498" height="358" viewBox="0 0 498 358" fill="none" xmlns="http://www.w3.org/2000/svg">
<path d="M96.6814 1.72543C116.578 -4.84717 144.755 8.1525 151.946 27.9343C158.153 45.0033 157.775 81.5456 180.077 87.4953C205.639 94.3182 200.393 65.3266 213.576 59.2081C233.531 49.9401 243.569 69.4891 245.77 86.4358C248.018 103.761 237.752 131.355 258.639 141.794C297.588 161.267 348.177 75.8812 381.699 114.362C398.114 133.207 376.424 160.015 409.958 173.737C432.906 183.127 449.082 177.137 471.587 196.389C493.563 215.192 514.81 272.145 473.561 276.552C453.129 278.735 439.41 266.679 411.612 274.253C350.699 290.85 394.76 350.149 405.55 387.116C410.453 403.912 419.781 435.186 394.452 439.686C368.499 444.296 341.964 396.868 307.871 405.14C275.7 412.947 268.276 466.739 240.407 476.95C228.872 481.176 220.185 481.473 210.245 473.864C184.549 454.193 215.171 409.21 176.827 392.274C147.905 379.496 108.513 403.103 77.1049 401.088C55.2633 399.685 33.707 383.949 43.7281 360.092C53.8425 336.014 107.244 341.591 93.1818 303.041C81.7923 271.814 15.5978 263.244 30.155 224.891C43.1983 190.538 83.6731 222.085 97.9391 185.834C121.161 126.815 54.8498 92.0362 64.8128 39.6707C68.0852 22.4737 79.7135 7.32583 96.6697 1.73125L96.6814 1.72543Z" fill="#FFF6F1"/>
<path d="M264.777 67.8471C310.044 46.8252 318.924 113.78 283.824 122.361C268.673 126.063 259.566 103.208 256.66 91.7739C254.639 83.8158 256.293 71.7883 264.777 67.8529V67.8471Z" fill="#FFF6F1"/>
<path d="M7.44182 331.712C-2.41049 326.845 -2.25327 308.647 6.92941 302.354C29.4057 286.955 57.9029 324.167 27.554 331.491C24.1418 332.312 10.3533 333.156 7.436 331.712H7.44182Z" fill="#FFF6F1"/>
<path d="M421.31 325.88C428.118 324.405 432.44 317.691 430.965 310.885C429.489 304.079 422.774 299.758 415.967 301.233C409.159 302.708 404.837 309.422 406.312 316.228C407.788 323.034 414.503 327.355 421.31 325.88Z" fill="#FFF6F1"/>
<path d="M189.457 21.4372C199.234 24.1676 199.839 42.6279 188.281 46.0569C170.329 51.3778 165.374 14.7074 189.457 21.4372Z" fill="#FFF6F1"/>
</svg>
