<svg width="273" height="273" viewBox="0 15 273 273" fill="none" xmlns="http://www.w3.org/2000/svg">
<path d="M136.5 288C61.1131 288 5.34268e-06 226.887 1.19332e-05 151.5C1.85237e-05 76.1131 61.1132 15 136.5 15C211.887 15 273 76.1131 273 151.5C273 226.887 211.887 288 136.5 288ZM136.5 249C189.795 249 233 205.795 233 152.5C233 99.2045 189.795 56 136.5 56C83.2045 56 40 99.2045 40 152.5C40 205.795 83.2045 249 136.5 249Z" fill="url(#paint0_linear_2029_5853)"/>
<circle cx="136.5" cy="151.5" r="116.5" stroke="#FFF6F1" stroke-width="27"/>
<path d="M158.411 166.812C158.759 166.281 158.881 165.634 158.752 165.014C158.622 164.393 158.251 163.849 157.721 163.501C157.19 163.154 156.544 163.032 155.923 163.161C155.302 163.291 154.758 163.661 154.411 164.192C151.483 168.649 147.147 171.998 142.094 173.705C137.042 175.413 131.564 175.38 126.532 173.612C121.5 171.845 117.205 168.444 114.33 163.952C111.455 159.46 110.167 154.135 110.669 148.826C111.172 143.517 113.437 138.528 117.104 134.656C120.77 130.783 125.627 128.249 130.901 127.457C136.175 126.665 141.562 127.661 146.205 130.286C150.847 132.91 154.477 137.014 156.517 141.941C156.76 142.526 157.224 142.992 157.81 143.234C158.395 143.477 159.052 143.477 159.638 143.234C160.223 142.992 160.688 142.527 160.931 141.942C161.173 141.357 161.173 140.699 160.931 140.114C158.483 134.201 154.126 129.278 148.555 126.128C142.983 122.979 136.518 121.784 130.19 122.735C123.861 123.687 118.033 126.728 113.633 131.376C109.234 136.024 106.517 142.01 105.914 148.382C105.312 154.753 106.859 161.143 110.31 166.533C113.76 171.923 118.915 176.003 124.954 178.123C130.992 180.243 137.566 180.282 143.629 178.232C149.692 176.182 154.894 172.163 158.407 166.813" fill="#2626FF"/>
<path d="M143.785 139.016C143.473 138.953 143.152 138.953 142.84 139.016C142.528 139.079 142.231 139.203 141.968 139.382C141.705 139.561 141.48 139.791 141.307 140.058C141.134 140.325 141.016 140.624 140.96 140.937C140.904 141.25 140.911 141.572 140.981 141.882C141.051 142.192 141.182 142.486 141.367 142.745C141.552 143.004 141.787 143.223 142.057 143.39C142.328 143.557 142.63 143.669 142.944 143.718L162.382 147.185C162.694 147.248 163.015 147.248 163.327 147.185C163.639 147.122 163.936 146.998 164.199 146.819C164.462 146.64 164.687 146.41 164.86 146.143C165.033 145.876 165.151 145.577 165.207 145.264C165.263 144.951 165.256 144.629 165.186 144.319C165.116 144.009 164.985 143.715 164.8 143.456C164.615 143.197 164.38 142.978 164.11 142.811C163.839 142.644 163.537 142.532 163.223 142.483L143.785 139.016Z" fill="#2626FF"/>
<path d="M165.678 127.219C165.678 126.597 165.434 126 165 125.554C164.566 125.109 163.976 124.85 163.354 124.834C162.732 124.817 162.128 125.043 161.671 125.465C161.214 125.886 160.939 126.469 160.905 127.09L160.42 144.766C160.412 145.08 160.465 145.393 160.577 145.686C160.689 145.979 160.858 146.247 161.074 146.475C161.29 146.703 161.548 146.887 161.835 147.015C162.122 147.143 162.431 147.213 162.745 147.222C163.059 147.23 163.371 147.177 163.664 147.065C163.958 146.952 164.226 146.784 164.454 146.568C164.682 146.352 164.865 146.093 164.993 145.807C165.121 145.52 165.191 145.211 165.2 144.897L165.678 127.219Z" fill="#2626FF"/>
<defs>
<linearGradient id="paint0_linear_2029_5853" x1="273" y1="151.5" x2="1.19332e-05" y2="151.5" gradientUnits="userSpaceOnUse">
<stop stop-color="#FFD73A"/>
<stop offset="0.3" stop-color="#FA4923"/>
<stop offset="0.6" stop-color="#FA81C3"/>
<stop offset="1" stop-color="#2626FF"/>
</linearGradient>
</defs>
</svg>
