<svg width="69" height="301" viewBox="0 0 69 301" fill="none" xmlns="http://www.w3.org/2000/svg">
<rect x="13" y="301" width="301" height="41.9999" rx="20.5" transform="rotate(-90 13 301)" fill="url(#paint0_linear_2029_5846)"/>
<rect x="20" y="294" width="286" height="28.9999" rx="14.4999" transform="rotate(-90 20 294)" fill="#FFF6F1"/>
<path d="M34.7071 16.2929C34.3166 15.9024 33.6834 15.9024 33.2929 16.2929L26.9289 22.6571C26.5384 23.0476 26.5384 23.6808 26.9289 24.0713C27.3195 24.4618 27.9526 24.4618 28.3431 24.0712L34 18.4142L39.6569 24.0709C40.0474 24.4614 40.6805 24.4614 41.0711 24.0709C41.4616 23.6803 41.4616 23.0472 41.0711 22.6566L34.7071 16.2929ZM34 17L33 17L33 37L34 37L35 37L35 17L34 17Z" fill="#2626FF"/>
<path d="M34.2929 286.756C34.6834 287.146 35.3166 287.146 35.7071 286.756L42.0711 280.392C42.4616 280.001 42.4616 279.368 42.0711 278.978C41.6805 278.587 41.0474 278.587 40.6569 278.978L35 284.635L29.3431 278.978C28.9526 278.587 28.3195 278.587 27.9289 278.978C27.5384 279.368 27.5384 280.001 27.9289 280.392L34.2929 286.756ZM35 286.049L36 286.049L36 266L35 266L34 266L34 286.049L35 286.049Z" fill="#2626FF"/>
<defs>
<linearGradient id="paint0_linear_2029_5846" x1="13" y1="322" x2="314" y2="322" gradientUnits="userSpaceOnUse">
<stop stop-color="#FFD73A"/>
<stop offset="0.3" stop-color="#FA4923"/>
<stop offset="0.6" stop-color="#FA81C3"/>
<stop offset="1" stop-color="#2626FF"/>
</linearGradient>
</defs>
</svg>
