<svg width="405" height="69" viewBox="0 0 405 69" fill="none" xmlns="http://www.w3.org/2000/svg">
<rect x="405" y="56" width="405" height="41.9999" rx="20.5" transform="rotate(-180 405 56)" fill="url(#paint0_linear_2029_5852)"/>
<rect x="398" y="49" width="391" height="28.9999" rx="14.4999" transform="rotate(-180 398 49)" fill="#FFF6F1"/>
<path d="M15.2929 34.2929C14.9024 34.6834 14.9024 35.3166 15.2929 35.7071L21.6569 42.0711C22.0474 42.4616 22.6805 42.4616 23.0711 42.0711C23.4616 41.6805 23.4616 41.0474 23.0711 40.6569L17.4142 35L23.0711 29.3432C23.4616 28.9526 23.4616 28.3195 23.0711 27.9289C22.6805 27.5384 22.0474 27.5384 21.6569 27.9289L15.2929 34.2929ZM16 35L16 36L35 36L35 35L35 34L16 34L16 35Z" fill="#2626FF"/>
<path d="M386.707 35.6973C387.098 35.3068 387.098 34.6737 386.707 34.2831L380.343 27.9192C379.953 27.5286 379.319 27.5286 378.929 27.9192C378.538 28.3097 378.538 28.9428 378.929 29.3334L384.586 34.9902L378.929 40.6471C378.538 41.0376 378.538 41.6708 378.929 42.0613C379.319 42.4518 379.953 42.4518 380.343 42.0613L386.707 35.6973ZM386 34.9902L386 33.9902L367 33.9902L367 34.9902L367 35.9902L386 35.9902L386 34.9902Z" fill="#2626FF"/>
<defs>
<linearGradient id="paint0_linear_2029_5852" x1="405" y1="76.9999" x2="810" y2="76.9999" gradientUnits="userSpaceOnUse">
<stop stop-color="#FFD73A"/>
<stop offset="0.3" stop-color="#FA4923"/>
<stop offset="0.6" stop-color="#FA81C3"/>
<stop offset="1" stop-color="#2626FF"/>
</linearGradient>
</defs>
</svg>
