<svg width="316" height="412" viewBox="0 0 316 412" fill="none" xmlns="http://www.w3.org/2000/svg">
<path d="M80.5658 1.43135C97.154 -4.04831 120.645 6.78967 126.641 23.282C131.816 37.5127 131.5 67.9784 150.093 72.9388C171.405 78.6271 167.031 54.4564 178.022 49.3553C194.659 41.6285 203.028 57.9267 204.863 72.0554C206.737 86.4996 198.178 109.505 215.592 118.208C248.064 134.443 290.241 63.2559 318.189 95.3379C331.874 111.049 313.791 133.399 341.748 144.839C360.88 152.668 374.366 147.674 393.129 163.724C411.451 179.401 429.165 226.884 394.775 230.558C377.74 232.378 366.303 222.326 343.127 228.641C292.343 242.478 329.078 291.917 338.073 322.737C342.161 336.739 349.938 362.812 328.821 366.564C307.184 370.408 285.061 330.866 256.637 337.763C229.816 344.272 223.626 389.119 200.392 397.632C190.775 401.155 183.532 401.403 175.245 395.059C153.822 378.659 179.352 341.156 147.385 327.037C123.272 316.383 90.4304 336.064 64.2446 334.385C46.035 333.215 28.0633 320.096 36.4181 300.206C44.8505 280.132 89.3721 284.782 77.6482 252.642C68.1526 226.607 12.9655 219.463 25.102 187.487C35.9763 158.847 69.7206 185.148 81.6144 154.925C100.975 105.72 45.6903 76.7245 53.9966 33.0668C56.7249 18.7294 66.4195 6.10047 80.5561 1.4362L80.5658 1.43135Z" fill="#2626FF"/>
<path d="M100.561 367.842C105.658 360.013 105.658 349.534 116.921 345.254C143.301 335.231 140.233 378.059 129.557 392.585C121.222 403.933 89.0748 420.576 81.4482 404.292C72.2147 384.587 92.5749 380.112 100.566 367.837L100.561 367.842Z" fill="#2626FF"/>
<path d="M220.712 56.56C258.452 39.0338 265.855 94.8545 236.592 102.009C223.96 105.096 216.367 86.0405 213.945 76.5081C212.26 69.8733 213.639 59.8458 220.712 56.5648V56.56Z" fill="#2626FF"/>
<path d="M6.16526 276.547C-2.04873 272.49 -1.91766 257.317 5.73805 252.071C24.4768 239.233 48.2353 270.257 22.9331 276.363C20.0883 277.047 8.59256 277.751 6.1604 276.547H6.16526Z" fill="#2626FF"/>
<path d="M157.917 17.866C166.067 20.1423 166.572 35.5329 156.936 38.3917C141.969 42.8278 137.838 12.2553 157.917 17.866Z" fill="#2626FF"/>
</svg>
