<svg xmlns="http://www.w3.org/2000/svg" fill="none" viewBox="149.62055335968378 105.336 477.49275362318843 356.664" style="max-height: 500px" width="477.49275362318843" height="356.664">
<path fill="#FFF6F1" d="M284.763 631.04C266.047 621.618 255.315 592.502 264.218 573.429C271.898 556.97 298.005 531.399 286.442 511.422C273.192 488.522 256.401 512.732 242.753 507.737C222.089 500.18 228.814 479.258 239.241 465.719C249.902 451.879 276.673 439.625 269.285 417.475C255.514 376.164 159.365 400.769 162.871 349.855C164.589 324.923 198.883 321.304 184.874 287.889C175.287 265.023 159.613 257.821 157.313 228.293C155.07 199.458 180.317 144.162 212.601 170.213C228.593 183.118 229.768 201.344 254.78 215.644C309.588 246.98 320.363 173.893 338.873 140.124C347.282 124.781 362.8 96.071 383.893 110.8C405.504 125.891 390.73 178.191 420.687 196.449C448.956 213.677 492.242 180.89 519.168 193.376C530.313 198.544 536.666 204.477 538.314 216.885C542.575 248.965 489.113 259.12 504.251 298.208C515.667 327.695 560.213 338.857 580.998 362.49C595.45 378.927 599.566 405.296 575.611 415.079C551.433 424.953 517.616 383.249 500.3 420.452C486.273 450.587 527.02 503.453 489.607 520.279C456.092 535.347 449.78 484.42 414.058 499.966C355.905 525.279 378.202 596.76 334.129 626.743C319.655 636.589 300.721 639.078 284.776 631.044L284.763 631.04Z"/>
<path fill="#FFF6F1" d="M578.574 303.318C567.611 305.635 558.723 314.523 545.54 308.601C514.666 294.728 553.592 261.006 574.967 257.739C591.661 255.184 633.042 268.334 625.699 288.614C616.817 313.158 595.754 299.685 578.566 303.318L578.574 303.318Z"/>
<path fill="#FFF6F1" d="M212.659 465.425C165.785 448.281 206.85 394.658 237.738 413.41C251.069 421.506 241.347 444.107 235.317 454.246C231.119 461.302 221.445 468.637 212.663 465.421L212.659 465.425Z"/>
<path fill="#FFF6F1" d="M581.204 460.807C584.729 471.215 571.749 483.972 560.806 481.929C534.025 476.924 540.187 430.461 566.826 446.742C569.819 448.575 580.166 457.728 581.208 460.811L581.204 460.807Z"/>
<path fill="#FFF6F1" d="M284.432 172.283C278.575 168.512 270.771 170.203 267.002 176.059C263.233 181.915 264.925 189.719 270.782 193.489C276.639 197.26 284.442 195.569 288.211 189.713C291.981 183.857 290.288 176.053 284.432 172.283Z"/>
</svg>