<svg width="495" height="357" viewBox="0 0 495 357" fill="none" xmlns="http://www.w3.org/2000/svg">
<path d="M492.318 96.6833C498.89 116.58 485.89 144.757 466.109 151.948C449.04 158.155 412.497 157.777 406.548 180.079C399.725 205.641 428.716 200.395 434.835 213.578C444.103 233.533 424.554 243.571 407.607 245.772C390.282 248.02 362.688 237.754 352.249 258.641C332.776 297.59 418.162 348.179 379.681 381.701C360.836 398.116 334.028 376.426 320.306 409.96C310.916 432.908 316.906 449.084 297.654 471.589C278.85 493.565 221.898 514.812 217.491 473.563C215.308 453.131 227.364 439.412 219.79 411.614C203.193 350.7 143.894 394.762 106.926 405.552C90.1311 410.455 58.8574 419.783 54.3573 394.454C49.7466 368.501 97.1753 341.966 88.9028 307.873C81.096 275.702 27.3042 268.278 17.0931 240.409C12.8666 228.874 12.5698 220.187 20.1786 210.247C39.8498 184.551 84.8335 215.173 101.769 176.829C114.547 147.907 90.9403 108.515 92.9546 77.1068C94.3576 55.2652 110.093 33.7089 133.95 43.7301C158.029 53.8444 152.452 107.246 191.002 93.1838C222.229 81.7942 230.799 15.5998 269.152 30.157C303.505 43.2002 271.958 83.675 308.209 97.9411C367.228 121.163 402.007 54.8518 454.372 64.8147C471.569 68.0872 486.717 79.7155 492.312 96.6717L492.318 96.6833Z" fill="#FFF6F1"/>
<path d="M52.8253 120.663C62.2156 126.777 74.7845 126.777 79.9192 140.286C91.9408 171.927 40.5708 168.247 23.1467 155.443C9.53581 145.445 -10.4265 106.886 9.10501 97.7381C32.7408 86.663 38.1083 111.084 52.8312 120.669L52.8253 120.663Z" fill="#FFF6F1"/>
<path d="M426.194 264.777C447.216 310.044 380.261 318.924 371.68 283.824C367.978 268.673 390.833 259.566 402.267 256.66C410.225 254.639 422.253 256.293 426.188 264.777L426.194 264.777Z" fill="#FFF6F1"/>
<path d="M162.331 7.44182C167.198 -2.41049 185.396 -2.25327 191.689 6.92941C207.088 29.4057 169.876 57.9029 162.552 27.554C161.731 24.1418 160.887 10.3533 162.331 7.436L162.331 7.44182Z" fill="#FFF6F1"/>
<path d="M472.606 189.459C469.875 199.236 451.415 199.841 447.986 188.283C442.665 170.331 479.336 165.376 472.606 189.459Z" fill="#FFF6F1"/>
</svg>
